<svg width="28" height="28" xmlns="http://www.w3.org/2000/svg">
    <g fill-rule="nonzero" fill="none">
        <rect width="28" height="28" rx="4" fill="#FFF"/>
        <path d="M11.818 11.91v6.545a.354.354 0 01-.102.26.354.354 0 01-.261.103h-.728a.354.354 0 01-.261-.102.354.354 0 01-.102-.261v-6.546c0-.106.034-.193.102-.261a.354.354 0 01.261-.103h.728c.106 0 .193.035.26.103a.354.354 0 01.103.261zm2.91 0v6.545a.354.354 0 01-.103.26.354.354 0 01-.261.103h-.728a.354.354 0 01-.261-.102.354.354 0 01-.102-.261v-6.546c0-.106.034-.193.102-.261a.354.354 0 01.261-.103h.728c.106 0 .193.035.261.103a.354.354 0 01.102.261zm2.908 0v6.545a.354.354 0 01-.102.26.354.354 0 01-.261.103h-.728a.354.354 0 01-.26-.102.354.354 0 01-.103-.261v-6.546c0-.106.034-.193.102-.261a.354.354 0 01.261-.103h.728c.106 0 .193.035.261.103a.354.354 0 01.102.261zm1.455 8.226V9.364H8.909v10.772a1.29 1.29 0 00.244.767c.057.065.097.097.12.097h9.454c.023 0 .063-.032.12-.097a1.29 1.29 0 00.244-.767zM11.455 7.91h5.09L16 6.58a.32.32 0 00-.193-.124h-3.602a.32.32 0 00-.194.125l-.556 1.33zM22 8.273V9a.354.354 0 01-.102.261.354.354 0 01-.262.103h-1.09v10.772c0 .63-.179 1.173-.535 1.631-.356.458-.784.688-1.284.688H9.273c-.5 0-.928-.222-1.284-.665-.356-.443-.534-.98-.534-1.608V9.364H6.364a.354.354 0 01-.262-.103A.354.354 0 016 9v-.727c0-.106.034-.193.102-.262a.354.354 0 01.262-.102h3.511l.795-1.898c.114-.28.319-.519.614-.716.296-.197.595-.295.898-.295h3.636c.303 0 .602.098.898.295.295.197.5.436.614.716l.795 1.898h3.511c.106 0 .194.034.262.102a.354.354 0 01.102.262z" fill="#3182CE"/>
    </g>
</svg>
