<?xml version="1.0" encoding="UTF-8"?>
<svg id="Layer_1" data-name="Layer 1" xmlns="http://www.w3.org/2000/svg" xmlns:xlink="http://www.w3.org/1999/xlink" viewBox="0 0 667.36 121.3">
  <defs>
    <style>
      .cls-1 {
        fill: #fff;
      }

      .cls-2 {
        fill: #0698fc;
      }

      .cls-3 {
        opacity: 0;
      }

      .cls-4 {
        fill: #16156c;
      }

      .cls-5 {
        fill: url(#linear-gradient);
      }
    </style>
    <linearGradient id="linear-gradient" x1="123.21" y1="9.32" x2="22.13" y2="116.82" gradientUnits="userSpaceOnUse">
      <stop offset="0" stop-color="#0698fc"/>
      <stop offset="1" stop-color="#16156c"/>
    </linearGradient>
  </defs>
  <g class="cls-3">
    <rect class="cls-1" width="667.36" height="121.3"/>
  </g>
  <g>
    <path class="cls-5" d="m51.73,76.32l28.39,44.98h41.1l-20.45-32.39c16.08-7.14,27.37-23.12,27.63-41.79C128.77,21.2,107,0,81.09,0h-11.32S28.67,0,28.67,0l-11.31,47.87c21.86-19.33,45.47-18.49,45.47-18.49l2.91-12.33,34.05,29.64-48.06,29.63,2.93-12.39s-29.55,2.88-48.2,30.11L0,121.3h41.1l10.63-44.98Z"/>
    <g>
      <path class="cls-4" d="m212.29,73.8h-9.24l-4.87,21.99h-16.74l14.31-64.91h29.58c11.19,0,21.02,7.3,21.02,18.98s-7.79,20.44-17.32,22.97l7.78,22.96h-18.49l-6.03-21.99Zm16.64-22.28c0-3.89-3.12-6.52-7.1-6.52h-12.46l-3.21,14.6h12.94c6.03,0,9.83-3.12,9.83-8.08Z"/>
      <path class="cls-4" d="m272.56,47.63c11.87,0,21.6,7.49,21.6,21.21,0,2.92-.58,6.52-.97,8.18h-33.28v.58c0,2.34,3.5,7.79,11.29,7.79,3.89,0,8.46-1.07,10.99-2.92l4.57,9.93c-4.57,3.12-11,4.57-16.74,4.57-14.99,0-25.01-7.78-25.01-21.31,0-15.08,11.48-28.03,27.54-28.03Zm8.37,18.98c0-3.02-2.53-7.4-9.05-7.4-5.64,0-9.73,4.48-10.51,8.08h19.46c.1-.19.1-.49.1-.68Z"/>
      <path class="cls-4" d="m300.02,82.47l4.57-20.73h-7.79l2.92-12.94h7.78l2.82-12.84h14.99l-2.82,12.84h9.54l-2.92,12.94h-9.54l-3.5,15.96c-.19.78-.29,1.66-.29,2.14,0,2.34,1.46,3.89,4.48,3.89,1.07,0,2.43-.39,2.92-.78l.19,11.97c-1.75,1.36-4.96,2.04-8.08,2.04-9.15,0-15.57-3.5-15.57-11.09,0-.58.1-2.14.29-3.41Z"/>
      <path class="cls-4" d="m370.08,48.8h14.89l-10.41,47h-14.89l1.17-5.45c-3.99,4.57-8.17,6.62-13.43,6.62-10.51,0-17.61-6.91-17.61-19.46,0-13.62,8.37-29.87,24.72-29.87,5.84,0,11.29,2.34,14.31,6.72l1.27-5.55Zm-15.67,34.93c3.5,0,6.62-1.75,8.86-4.38l3.21-14.21c-1.95-2.53-5.35-4.28-9.34-4.28-6.91,0-11.87,6.13-11.87,13.53,0,5.64,3.99,9.34,9.15,9.34Z"/>
      <path class="cls-4" d="m394.14,48.8h14.99l-10.41,47h-14.99l10.41-47Zm11.58-23.06c4.48,0,7.78,3.31,7.78,7.3,0,6.33-5.35,9.83-9.73,9.83s-7.78-3.31-7.78-7.3c0-6.33,5.35-9.83,9.73-9.83Z"/>
      <path class="cls-4" d="m422.19,30.89h14.99l-14.31,64.91h-14.99l14.31-64.91Z"/>
      <path class="cls-2" d="m463.27,73.8h-9.24l-4.87,21.99h-16.74l14.31-64.91h29.58c11.19,0,21.02,7.3,21.02,18.98s-7.79,20.44-17.32,22.97l7.78,22.96h-18.49l-6.03-21.99Zm16.64-22.28c0-3.89-3.12-6.52-7.1-6.52h-12.46l-3.21,14.6h12.94c6.03,0,9.83-3.12,9.83-8.08Z"/>
      <path class="cls-2" d="m505.17,48.8h14.99l-10.41,47h-14.99l10.41-47Zm11.58-23.06c4.48,0,7.78,3.31,7.78,7.3,0,6.33-5.35,9.83-9.73,9.83s-7.78-3.31-7.78-7.3c0-6.33,5.35-9.83,9.73-9.83Z"/>
      <path class="cls-2" d="m523.89,96.67c3.02,3.89,9.25,5.93,14.79,5.93,5.16,0,10.22-2.14,12.26-10.99l.78-3.41c-3.5,4.28-8.37,6.81-13.62,6.81-9.25,0-17.81-5.25-17.81-18.98s8.95-28.42,24.42-28.42c5.25,0,11,2.43,14.4,6.72l1.36-5.55h14.89l-9.54,42.82c-4.18,19.07-16.74,23.26-26.86,23.26-9.44,0-17.62-2.34-23.55-8.27l8.46-9.93Zm32.8-31.04c-2.04-3.12-5.45-4.77-9.93-4.77-6.23,0-11,4.87-11,12.26,0,5.06,3.89,8.66,9.44,8.66,3.4,0,6.62-1.85,8.86-4.38l2.63-11.77Z"/>
      <path class="cls-2" d="m611.72,69.13c.2-.88.49-2.34.49-3.12,0-3.7-3.12-5.16-6.42-5.16-4.38,0-7.79,2.34-10.02,4.57l-6.62,30.36h-14.99l14.31-64.91h14.99l-5.35,23.65c3.6-3.31,8.27-6.91,15.28-6.91,9.44,0,15.08,5.06,15.08,12.16,0,1.07-.29,2.92-.49,3.89l-7.01,32.11h-14.99l5.74-26.66Z"/>
      <path class="cls-2" d="m635.34,82.47l4.57-20.73h-7.79l2.92-12.94h7.78l2.82-12.84h14.99l-2.82,12.84h9.54l-2.92,12.94h-9.54l-3.5,15.96c-.19.78-.29,1.66-.29,2.14,0,2.34,1.46,3.89,4.48,3.89,1.07,0,2.43-.39,2.92-.78l.19,11.97c-1.75,1.36-4.96,2.04-8.08,2.04-9.15,0-15.57-3.5-15.57-11.09,0-.58.1-2.14.29-3.41Z"/>
    </g>
  </g>
</svg>