<?xml version="1.0" standalone="no"?>
<!DOCTYPE svg PUBLIC "-//W3C//DTD SVG 20010904//EN"
 "http://www.w3.org/TR/2001/REC-SVG-20010904/DTD/svg10.dtd">
<svg version="1.0" xmlns="http://www.w3.org/2000/svg"
 width="100.000000pt" height="100.000000pt" viewBox="0 0 100.000000 100.000000"
 preserveAspectRatio="xMidYMid meet">
<metadata>
Created by potrace 1.14, written by Peter Selinger 2001-2017
</metadata>
<g transform="translate(0.000000,100.000000) scale(0.100000,-0.100000)"
fill="#000000" stroke="none">
<path d="M225 948 c-6 -19 -46 -178 -51 -207 -3 -13 -11 -50 -19 -83 l-13 -58
38 30 c56 44 159 88 239 102 l69 12 7 43 c7 48 9 48 78 -13 18 -16 61 -54 97
-84 95 -80 91 -76 77 -88 -10 -8 -139 -88 -313 -193 l-32 -19 9 41 c5 23 8 44
5 46 -3 3 -36 -4 -73 -16 -82 -24 -171 -80 -235 -147 -44 -44 -49 -56 -69
-144 -12 -52 -24 -101 -27 -108 -3 -10 29 -12 153 -10 131 3 159 6 161 18 8
47 70 300 74 304 3 2 52 -69 110 -160 l105 -164 153 0 c83 0 152 2 152 5 0 2
-34 57 -75 122 l-74 117 32 15 c50 25 116 96 145 158 23 49 27 72 27 143 0 76
-4 93 -33 152 -37 76 -88 125 -172 166 -55 27 -57 27 -298 30 -195 3 -243 1
-247 -10z"/>
</g>
</svg>
